<svg xmlns="http://www.w3.org/2000/svg" width="3840" height="2160" viewBox="0 0 3840 2160">
  <defs>
    <filter id="shadow" x="-20%" y="-20%" width="140%" height="140%">
      <feDropShadow dx="0" dy="12" stdDeviation="20" flood-color="#000000" flood-opacity="0.38"/>
    </filter>
    <linearGradient id="kvgrad" x1="0" y1="0" x2="1" y2="1">
      <stop offset="0%" stop-color="#E7E2D8"/>
      <stop offset="52%" stop-color="#FFB000"/>
      <stop offset="100%" stop-color="#8A5CFF"/>
    </linearGradient>
    <style>
      .title { font-family: Inter, Segoe UI, Arial, sans-serif; font-size: 58px; font-weight: 850; fill: #E7E2D8; }
      .subtitle { font-family: Inter, Segoe UI, Arial, sans-serif; font-size: 27px; font-weight: 500; fill: #A9A39A; }
      .h1 { font-family: Inter, Segoe UI, Arial, sans-serif; font-size: 34px; font-weight: 850; fill: #E7E2D8; }
      .h2 { font-family: Inter, Segoe UI, Arial, sans-serif; font-size: 25px; font-weight: 750; fill: #E7E2D8; }
      .body { font-family: Inter, Segoe UI, Arial, sans-serif; font-size: 21px; font-weight: 450; fill: #A9A39A; }
      .small { font-family: Inter, Segoe UI, Arial, sans-serif; font-size: 18px; font-weight: 450; fill: #6F737A; }
      .code { font-family: JetBrains Mono, Consolas, monospace; font-size: 19px; fill: #A9A39A; }
      .label { font-family: Inter, Segoe UI, Arial, sans-serif; font-size: 16px; font-weight: 850; fill: #6F737A; letter-spacing: 1.4px; }
      .pill { font-family: Inter, Segoe UI, Arial, sans-serif; font-size: 18px; font-weight: 750; fill: #E7E2D8; }
    </style>
  </defs>
  <rect width="3840" height="2160" fill="#0B0D10"/>

<line x1="0" y1="0" x2="0" y2="2160" stroke="#12161B" stroke-width="1"/>
<line x1="80" y1="0" x2="80" y2="2160" stroke="#12161B" stroke-width="1"/>
<line x1="160" y1="0" x2="160" y2="2160" stroke="#12161B" stroke-width="1"/>
<line x1="240" y1="0" x2="240" y2="2160" stroke="#12161B" stroke-width="1"/>
<line x1="320" y1="0" x2="320" y2="2160" stroke="#12161B" stroke-width="1"/>
<line x1="400" y1="0" x2="400" y2="2160" stroke="#12161B" stroke-width="1"/>
<line x1="480" y1="0" x2="480" y2="2160" stroke="#12161B" stroke-width="1"/>
<line x1="560" y1="0" x2="560" y2="2160" stroke="#12161B" stroke-width="1"/>
<line x1="640" y1="0" x2="640" y2="2160" stroke="#12161B" stroke-width="1"/>
<line x1="720" y1="0" x2="720" y2="2160" stroke="#12161B" stroke-width="1"/>
<line x1="800" y1="0" x2="800" y2="2160" stroke="#12161B" stroke-width="1"/>
<line x1="880" y1="0" x2="880" y2="2160" stroke="#12161B" stroke-width="1"/>
<line x1="960" y1="0" x2="960" y2="2160" stroke="#12161B" stroke-width="1"/>
<line x1="1040" y1="0" x2="1040" y2="2160" stroke="#12161B" stroke-width="1"/>
<line x1="1120" y1="0" x2="1120" y2="2160" stroke="#12161B" stroke-width="1"/>
<line x1="1200" y1="0" x2="1200" y2="2160" stroke="#12161B" stroke-width="1"/>
<line x1="1280" y1="0" x2="1280" y2="2160" stroke="#12161B" stroke-width="1"/>
<line x1="1360" y1="0" x2="1360" y2="2160" stroke="#12161B" stroke-width="1"/>
<line x1="1440" y1="0" x2="1440" y2="2160" stroke="#12161B" stroke-width="1"/>
<line x1="1520" y1="0" x2="1520" y2="2160" stroke="#12161B" stroke-width="1"/>
<line x1="1600" y1="0" x2="1600" y2="2160" stroke="#12161B" stroke-width="1"/>
<line x1="1680" y1="0" x2="1680" y2="2160" stroke="#12161B" stroke-width="1"/>
<line x1="1760" y1="0" x2="1760" y2="2160" stroke="#12161B" stroke-width="1"/>
<line x1="1840" y1="0" x2="1840" y2="2160" stroke="#12161B" stroke-width="1"/>
<line x1="1920" y1="0" x2="1920" y2="2160" stroke="#12161B" stroke-width="1"/>
<line x1="2000" y1="0" x2="2000" y2="2160" stroke="#12161B" stroke-width="1"/>
<line x1="2080" y1="0" x2="2080" y2="2160" stroke="#12161B" stroke-width="1"/>
<line x1="2160" y1="0" x2="2160" y2="2160" stroke="#12161B" stroke-width="1"/>
<line x1="2240" y1="0" x2="2240" y2="2160" stroke="#12161B" stroke-width="1"/>
<line x1="2320" y1="0" x2="2320" y2="2160" stroke="#12161B" stroke-width="1"/>
<line x1="2400" y1="0" x2="2400" y2="2160" stroke="#12161B" stroke-width="1"/>
<line x1="2480" y1="0" x2="2480" y2="2160" stroke="#12161B" stroke-width="1"/>
<line x1="2560" y1="0" x2="2560" y2="2160" stroke="#12161B" stroke-width="1"/>
<line x1="2640" y1="0" x2="2640" y2="2160" stroke="#12161B" stroke-width="1"/>
<line x1="2720" y1="0" x2="2720" y2="2160" stroke="#12161B" stroke-width="1"/>
<line x1="2800" y1="0" x2="2800" y2="2160" stroke="#12161B" stroke-width="1"/>
<line x1="2880" y1="0" x2="2880" y2="2160" stroke="#12161B" stroke-width="1"/>
<line x1="2960" y1="0" x2="2960" y2="2160" stroke="#12161B" stroke-width="1"/>
<line x1="3040" y1="0" x2="3040" y2="2160" stroke="#12161B" stroke-width="1"/>
<line x1="3120" y1="0" x2="3120" y2="2160" stroke="#12161B" stroke-width="1"/>
<line x1="3200" y1="0" x2="3200" y2="2160" stroke="#12161B" stroke-width="1"/>
<line x1="3280" y1="0" x2="3280" y2="2160" stroke="#12161B" stroke-width="1"/>
<line x1="3360" y1="0" x2="3360" y2="2160" stroke="#12161B" stroke-width="1"/>
<line x1="3440" y1="0" x2="3440" y2="2160" stroke="#12161B" stroke-width="1"/>
<line x1="3520" y1="0" x2="3520" y2="2160" stroke="#12161B" stroke-width="1"/>
<line x1="3600" y1="0" x2="3600" y2="2160" stroke="#12161B" stroke-width="1"/>
<line x1="3680" y1="0" x2="3680" y2="2160" stroke="#12161B" stroke-width="1"/>
<line x1="3760" y1="0" x2="3760" y2="2160" stroke="#12161B" stroke-width="1"/>
<line x1="0" y1="0" x2="3840" y2="0" stroke="#12161B" stroke-width="1"/>
<line x1="0" y1="80" x2="3840" y2="80" stroke="#12161B" stroke-width="1"/>
<line x1="0" y1="160" x2="3840" y2="160" stroke="#12161B" stroke-width="1"/>
<line x1="0" y1="240" x2="3840" y2="240" stroke="#12161B" stroke-width="1"/>
<line x1="0" y1="320" x2="3840" y2="320" stroke="#12161B" stroke-width="1"/>
<line x1="0" y1="400" x2="3840" y2="400" stroke="#12161B" stroke-width="1"/>
<line x1="0" y1="480" x2="3840" y2="480" stroke="#12161B" stroke-width="1"/>
<line x1="0" y1="560" x2="3840" y2="560" stroke="#12161B" stroke-width="1"/>
<line x1="0" y1="640" x2="3840" y2="640" stroke="#12161B" stroke-width="1"/>
<line x1="0" y1="720" x2="3840" y2="720" stroke="#12161B" stroke-width="1"/>
<line x1="0" y1="800" x2="3840" y2="800" stroke="#12161B" stroke-width="1"/>
<line x1="0" y1="880" x2="3840" y2="880" stroke="#12161B" stroke-width="1"/>
<line x1="0" y1="960" x2="3840" y2="960" stroke="#12161B" stroke-width="1"/>
<line x1="0" y1="1040" x2="3840" y2="1040" stroke="#12161B" stroke-width="1"/>
<line x1="0" y1="1120" x2="3840" y2="1120" stroke="#12161B" stroke-width="1"/>
<line x1="0" y1="1200" x2="3840" y2="1200" stroke="#12161B" stroke-width="1"/>
<line x1="0" y1="1280" x2="3840" y2="1280" stroke="#12161B" stroke-width="1"/>
<line x1="0" y1="1360" x2="3840" y2="1360" stroke="#12161B" stroke-width="1"/>
<line x1="0" y1="1440" x2="3840" y2="1440" stroke="#12161B" stroke-width="1"/>
<line x1="0" y1="1520" x2="3840" y2="1520" stroke="#12161B" stroke-width="1"/>
<line x1="0" y1="1600" x2="3840" y2="1600" stroke="#12161B" stroke-width="1"/>
<line x1="0" y1="1680" x2="3840" y2="1680" stroke="#12161B" stroke-width="1"/>
<line x1="0" y1="1760" x2="3840" y2="1760" stroke="#12161B" stroke-width="1"/>
<line x1="0" y1="1840" x2="3840" y2="1840" stroke="#12161B" stroke-width="1"/>
<line x1="0" y1="1920" x2="3840" y2="1920" stroke="#12161B" stroke-width="1"/>
<line x1="0" y1="2000" x2="3840" y2="2000" stroke="#12161B" stroke-width="1"/>
<line x1="0" y1="2080" x2="3840" y2="2080" stroke="#12161B" stroke-width="1"/>
<rect x="80" y="64" width="3680" height="180" rx="34" fill="#111418" stroke="#2A2F37" filter="url(#shadow)"/>
<rect x="116" y="98" width="102" height="102" rx="24" fill="#0C0F13" stroke="#FFB000" stroke-width="3"/>
<text x="142" y="164" class="h1" fill="url(#kvgrad)">KV</text>
<text x="250" y="135" class="title">Kinein Vectis — SPEC_INDEX</text>
<text x="253" y="184" class="subtitle">Índice consolidado: fonte de verdade, MVP, Pós-MVP, Futuro e roadmap de implementação</text>
<rect x="2460" y="112" width="178" height="48" rx="24" fill="#0E1217" stroke="#7CCF6A" stroke-width="2"/>
<circle cx="2486" cy="136" r="7" fill="#7CCF6A"/>
<text x="2504" y="144" class="pill">Macro closed</text>
<rect x="2654" y="112" width="166" height="48" rx="24" fill="#0E1217" stroke="#FFB000" stroke-width="2"/>
<circle cx="2680" cy="136" r="7" fill="#FFB000"/>
<text x="2698" y="144" class="pill">MVP defined</text>
<rect x="2836" y="112" width="202" height="48" rx="24" fill="#0E1217" stroke="#D45F5F" stroke-width="2"/>
<circle cx="2862" cy="136" r="7" fill="#D45F5F"/>
<text x="2880" y="144" class="pill">No embedded AI</text>
<rect x="3054" y="112" width="142" height="48" rx="24" fill="#0E1217" stroke="#5C8DFF" stroke-width="2"/>
<circle cx="3080" cy="136" r="7" fill="#5C8DFF"/>
<text x="3098" y="144" class="pill">Rust Core</text>
<rect x="3212" y="112" width="106" height="48" rx="24" fill="#0E1217" stroke="#8A5CFF" stroke-width="2"/>
<circle cx="3238" cy="136" r="7" fill="#8A5CFF"/>
<text x="3256" y="144" class="pill">Qt/QML</text>
<rect x="80" y="300" width="3680" height="1660" rx="28" fill="#111418" stroke="#2A2F37" filter="url(#shadow)"/>
<text x="122" y="362" class="h1">Fase macro concluída: agora é consolidar, priorizar, cortar excesso e implementar</text>
<rect x="122" y="410" width="1780" height="700" rx="26" fill="#171B21" stroke="#2A2F37"/>
<text x="156" y="468" class="h1">Mapa das especificações</text>
<rect x="158" y="525" width="530" height="74" rx="18" fill="#0D1014" stroke="#5C8DFF" stroke-width="2"/>
<text x="178" y="556" class="small" fill="#5C8DFF">01</text>
<text x="240" y="556" class="h2">Visual / Icons</text>
<text x="240" y="583" class="small">válido</text>
<rect x="728" y="525" width="530" height="74" rx="18" fill="#0D1014" stroke="#5C8DFF" stroke-width="2"/>
<text x="748" y="556" class="small" fill="#5C8DFF">02</text>
<text x="810" y="556" class="h2">Layout</text>
<text x="810" y="583" class="small">válido</text>
<rect x="1298" y="525" width="530" height="74" rx="18" fill="#0D1014" stroke="#5C8DFF" stroke-width="2"/>
<text x="1318" y="556" class="small" fill="#5C8DFF">03</text>
<text x="1380" y="556" class="h2">Components</text>
<text x="1380" y="583" class="small">válido</text>
<rect x="158" y="625" width="530" height="74" rx="18" fill="#0D1014" stroke="#FFB000" stroke-width="2"/>
<text x="178" y="656" class="small" fill="#FFB000">04</text>
<text x="240" y="656" class="h2">Build Run Debug</text>
<text x="240" y="683" class="small">válido</text>
<rect x="728" y="625" width="530" height="74" rx="18" fill="#0D1014" stroke="#7CCF6A" stroke-width="2"/>
<text x="748" y="656" class="small" fill="#7CCF6A">05</text>
<text x="810" y="656" class="h2">Editor + LSP</text>
<text x="810" y="683" class="small">válido</text>
<rect x="1298" y="625" width="530" height="74" rx="18" fill="#0D1014" stroke="#7CCF6A" stroke-width="2"/>
<text x="1318" y="656" class="small" fill="#7CCF6A">05.1</text>
<text x="1380" y="656" class="h2">Tree-sitter</text>
<text x="1380" y="683" class="small">válido</text>
<rect x="158" y="725" width="530" height="74" rx="18" fill="#0D1014" stroke="#8A5CFF" stroke-width="2"/>
<text x="178" y="756" class="small" fill="#8A5CFF">06</text>
<text x="240" y="756" class="h2">Embedded Targets</text>
<text x="240" y="783" class="small">pós-MVP</text>
<rect x="728" y="725" width="530" height="74" rx="18" fill="#0D1014" stroke="#D45F5F" stroke-width="2"/>
<text x="748" y="756" class="small" fill="#D45F5F">07</text>
<text x="810" y="756" class="h2">KV Context original</text>
<text x="810" y="783" class="small">substituído</text>
<rect x="1298" y="725" width="530" height="74" rx="18" fill="#0D1014" stroke="#7CCF6A" stroke-width="2"/>
<text x="1318" y="756" class="small" fill="#7CCF6A">07.1</text>
<text x="1380" y="756" class="h2">IA / CLI Bridge</text>
<text x="1380" y="783" class="small">cancelado</text>
<rect x="158" y="825" width="530" height="74" rx="18" fill="#0D1014" stroke="#FFB000" stroke-width="2"/>
<text x="178" y="856" class="small" fill="#FFB000">08</text>
<text x="240" y="856" class="h2">Onboarding</text>
<text x="240" y="883" class="small">válido</text>
<rect x="728" y="825" width="530" height="74" rx="18" fill="#0D1014" stroke="#FFB000" stroke-width="2"/>
<text x="748" y="856" class="small" fill="#FFB000">08.1</text>
<text x="810" y="856" class="h2">Setup Intelligence</text>
<text x="810" y="883" class="small">incremental</text>
<rect x="1298" y="825" width="530" height="74" rx="18" fill="#0D1014" stroke="#7CCF6A" stroke-width="2"/>
<text x="1318" y="856" class="small" fill="#7CCF6A">09</text>
<text x="1380" y="856" class="h2">Internal Architecture</text>
<text x="1380" y="883" class="small">fonte de verdade</text>
<rect x="158" y="925" width="530" height="74" rx="18" fill="#0D1014" stroke="#5C8DFF" stroke-width="2"/>
<text x="178" y="956" class="small" fill="#5C8DFF">09.1</text>
<text x="240" y="956" class="h2">Dual Workflow</text>
<text x="240" y="983" class="small">válido</text>
<rect x="728" y="925" width="530" height="74" rx="18" fill="#0D1014" stroke="#7CCF6A" stroke-width="2"/>
<text x="748" y="956" class="small" fill="#7CCF6A">09.2</text>
<text x="810" y="956" class="h2">Scoped Actions</text>
<text x="810" y="983" class="small">fonte de verdade</text>
<rect x="1298" y="925" width="530" height="74" rx="18" fill="#0D1014" stroke="#7CCF6A" stroke-width="2"/>
<text x="1318" y="956" class="small" fill="#7CCF6A">10</text>
<text x="1380" y="956" class="h2">Performance + MVP</text>
<text x="1380" y="983" class="small">fonte de verdade</text>
<rect x="1950" y="410" width="1848" height="700" rx="26" fill="#171B21" stroke="#2A2F37"/>
<text x="1984" y="468" class="h1">Decisões congeladas</text>
<rect x="2002" y="488" width="800" height="66" rx="16" fill="#0D1014" stroke="#2A2F37"/>
<text x="2026" y="518" class="label">UI</text>
<text x="2167" y="518" class="body">Qt/QML</text>
<rect x="2862" y="488" width="800" height="66" rx="16" fill="#0D1014" stroke="#2A2F37"/>
<text x="2886" y="518" class="label">CORE</text>
<text x="3027" y="518" class="body">Rust</text>
<rect x="2002" y="580" width="800" height="66" rx="16" fill="#0D1014" stroke="#2A2F37"/>
<text x="2026" y="610" class="label">IPC</text>
<text x="2167" y="610" class="body">JSON-RPC local</text>
<rect x="2862" y="580" width="800" height="66" rx="16" fill="#0D1014" stroke="#2A2F37"/>
<text x="2886" y="610" class="label">IA</text>
<text x="3027" y="610" class="body">fora do produto</text>
<rect x="2002" y="672" width="800" height="66" rx="16" fill="#0D1014" stroke="#2A2F37"/>
<text x="2026" y="702" class="label">EDITOR</text>
<text x="2167" y="702" class="body">Tree-sitter + LSP sob demanda</text>
<rect x="2862" y="672" width="800" height="66" rx="16" fill="#0D1014" stroke="#2A2F37"/>
<text x="2886" y="702" class="label">UX</text>
<text x="3027" y="702" class="body">Guided / Balanced / Expert</text>
<rect x="2002" y="764" width="800" height="66" rx="16" fill="#0D1014" stroke="#2A2F37"/>
<text x="2026" y="794" class="label">ACTIONS</text>
<text x="2167" y="794" class="body">CMake/Cargo por Build System ativo</text>
<rect x="2862" y="764" width="800" height="66" rx="16" fill="#0D1014" stroke="#2A2F37"/>
<text x="2886" y="794" class="label">SAFETY</text>
<text x="3027" y="794" class="body">preview obrigatório</text>
<rect x="2002" y="856" width="800" height="66" rx="16" fill="#0D1014" stroke="#2A2F37"/>
<text x="2026" y="886" class="label">MVP</text>
<text x="2167" y="886" class="body">sem plugin público, sem IA embutida</text>
<rect x="122" y="1150" width="1175" height="510" rx="26" fill="#171B21" stroke="#2A2F37"/>
<text x="156" y="1208" class="h1">MVP</text>
<circle cx="172" cy="1262" r="7" fill="#7CCF6A"/>
<text x="194" y="1270" class="body">Core + JSON-RPC</text>
<circle cx="172" cy="1314" r="7" fill="#7CCF6A"/>
<text x="194" y="1322" class="body">Workspace + detection</text>
<circle cx="172" cy="1366" r="7" fill="#7CCF6A"/>
<text x="194" y="1374" class="body">Toolchain scan</text>
<circle cx="172" cy="1418" r="7" fill="#7CCF6A"/>
<text x="194" y="1426" class="body">CMake/Cargo jobs</text>
<circle cx="172" cy="1470" r="7" fill="#7CCF6A"/>
<text x="194" y="1478" class="body">Editor básico</text>
<circle cx="172" cy="1522" r="7" fill="#7CCF6A"/>
<text x="194" y="1530" class="body">Configuration Actions MVP</text>
<circle cx="172" cy="1574" r="7" fill="#7CCF6A"/>
<text x="194" y="1582" class="body">AI Terminal externo</text>
<rect x="1347" y="1150" width="1175" height="510" rx="26" fill="#171B21" stroke="#2A2F37"/>
<text x="1381" y="1208" class="h1">Pós-MVP</text>
<circle cx="1397" cy="1262" r="7" fill="#FFB000"/>
<text x="1419" y="1270" class="body">Debug refinado</text>
<circle cx="1397" cy="1314" r="7" fill="#FFB000"/>
<text x="1419" y="1322" class="body">Remote SSH</text>
<circle cx="1397" cy="1366" r="7" fill="#FFB000"/>
<text x="1419" y="1374" class="body">Serial monitor</text>
<circle cx="1397" cy="1418" r="7" fill="#FFB000"/>
<text x="1419" y="1426" class="body">QEMU targets</text>
<circle cx="1397" cy="1470" r="7" fill="#FFB000"/>
<text x="1419" y="1478" class="body">CMake/Cargo actions avançadas</text>
<circle cx="1397" cy="1522" r="7" fill="#FFB000"/>
<text x="1419" y="1530" class="body">kinein doctor</text>
<circle cx="1397" cy="1574" r="7" fill="#FFB000"/>
<text x="1419" y="1582" class="body">Docs cacheadas</text>
<rect x="2572" y="1150" width="1175" height="510" rx="26" fill="#171B21" stroke="#2A2F37"/>
<text x="2606" y="1208" class="h1">Futuro</text>
<circle cx="2622" cy="1262" r="7" fill="#8A5CFF"/>
<text x="2644" y="1270" class="body">Plugin system</text>
<circle cx="2622" cy="1314" r="7" fill="#8A5CFF"/>
<text x="2644" y="1322" class="body">Marketplace</text>
<circle cx="2622" cy="1366" r="7" fill="#8A5CFF"/>
<text x="2644" y="1374" class="body">OpenGL simulation</text>
<circle cx="2622" cy="1418" r="7" fill="#8A5CFF"/>
<text x="2644" y="1426" class="body">Remote dev completo</text>
<circle cx="2622" cy="1470" r="7" fill="#8A5CFF"/>
<text x="2644" y="1478" class="body">Embedded flash completo</text>
<circle cx="2622" cy="1522" r="7" fill="#8A5CFF"/>
<text x="2644" y="1530" class="body">Team profiles</text>
<circle cx="2622" cy="1574" r="7" fill="#8A5CFF"/>
<text x="2644" y="1582" class="body">Cloud opcional</text>
<rect x="122" y="1700" width="3596" height="200" rx="26" fill="#171B21" stroke="#2A2F37"/>
<text x="156" y="1756" class="h1">Roadmap de implementação</text>
<rect x="156" y="1786" width="300" height="58" rx="18" fill="#0D1014" stroke="#7CCF6A" stroke-width="2"/>
<text x="180" y="1824" class="small" fill="#E7E2D8">0 Fundação</text>
<rect x="474" y="1786" width="300" height="58" rx="18" fill="#0D1014" stroke="#7CCF6A" stroke-width="2"/>
<text x="498" y="1824" class="small" fill="#E7E2D8">1 Workspace</text>
<rect x="792" y="1786" width="300" height="58" rx="18" fill="#0D1014" stroke="#7CCF6A" stroke-width="2"/>
<text x="816" y="1824" class="small" fill="#E7E2D8">2 Toolchains</text>
<rect x="1110" y="1786" width="300" height="58" rx="18" fill="#0D1014" stroke="#FFB000" stroke-width="2"/>
<text x="1134" y="1824" class="small" fill="#E7E2D8">3 CMake/Cargo</text>
<rect x="1428" y="1786" width="300" height="58" rx="18" fill="#0D1014" stroke="#FFB000" stroke-width="2"/>
<text x="1452" y="1824" class="small" fill="#E7E2D8">4 Editor</text>
<rect x="1746" y="1786" width="300" height="58" rx="18" fill="#0D1014" stroke="#FFB000" stroke-width="2"/>
<text x="1770" y="1824" class="small" fill="#E7E2D8">5 Onboarding</text>
<rect x="2064" y="1786" width="300" height="58" rx="18" fill="#0D1014" stroke="#FFB000" stroke-width="2"/>
<text x="2088" y="1824" class="small" fill="#E7E2D8">6 Config Actions</text>
<rect x="2382" y="1786" width="300" height="58" rx="18" fill="#0D1014" stroke="#8A5CFF" stroke-width="2"/>
<text x="2406" y="1824" class="small" fill="#E7E2D8">7 AI Terminal</text>
<rect x="2700" y="1786" width="280" height="58" rx="18" fill="#0D1014" stroke="#8A5CFF" stroke-width="2"/>
<text x="2724" y="1824" class="small" fill="#E7E2D8">8 Polimento</text>
<rect x="122" y="1922" width="3596" height="44" rx="16" fill="#0D1014" stroke="#2A2F37"/>
<text x="152" y="1951" class="small">Próximo documento recomendado: KINEIN_VECTIS_IMPLEMENTATION_PLAN.md — transformar visão em tarefas, milestones, dependências e critérios de aceite.</text>
</svg>
