<svg xmlns="http://www.w3.org/2000/svg" width="3840" height="2160" viewBox="0 0 3840 2160">
  <defs>
    <filter id="shadow" x="-20%" y="-20%" width="140%" height="140%">
      <feDropShadow dx="0" dy="12" stdDeviation="20" flood-color="#000000" flood-opacity="0.38"/>
    </filter>
    <linearGradient id="kvgrad" x1="0" y1="0" x2="1" y2="1">
      <stop offset="0%" stop-color="#E7E2D8"/>
      <stop offset="52%" stop-color="#FFB000"/>
      <stop offset="100%" stop-color="#8A5CFF"/>
    </linearGradient>
    <style>
      .title { font-family: Inter, Segoe UI, Arial, sans-serif; font-size: 58px; font-weight: 850; fill: #E7E2D8; }
      .subtitle { font-family: Inter, Segoe UI, Arial, sans-serif; font-size: 27px; font-weight: 500; fill: #A9A39A; }
      .h1 { font-family: Inter, Segoe UI, Arial, sans-serif; font-size: 34px; font-weight: 850; fill: #E7E2D8; }
      .h2 { font-family: Inter, Segoe UI, Arial, sans-serif; font-size: 25px; font-weight: 750; fill: #E7E2D8; }
      .body { font-family: Inter, Segoe UI, Arial, sans-serif; font-size: 21px; font-weight: 450; fill: #A9A39A; }
      .small { font-family: Inter, Segoe UI, Arial, sans-serif; font-size: 18px; font-weight: 450; fill: #6F737A; }
      .pill { font-family: Inter, Segoe UI, Arial, sans-serif; font-size: 18px; font-weight: 750; fill: #E7E2D8; }
    </style>
  </defs>
  <rect width="3840" height="2160" fill="#0B0D10"/>

<line x1="0" y1="0" x2="0" y2="2160" stroke="#12161B" stroke-width="1"/>
<line x1="80" y1="0" x2="80" y2="2160" stroke="#12161B" stroke-width="1"/>
<line x1="160" y1="0" x2="160" y2="2160" stroke="#12161B" stroke-width="1"/>
<line x1="240" y1="0" x2="240" y2="2160" stroke="#12161B" stroke-width="1"/>
<line x1="320" y1="0" x2="320" y2="2160" stroke="#12161B" stroke-width="1"/>
<line x1="400" y1="0" x2="400" y2="2160" stroke="#12161B" stroke-width="1"/>
<line x1="480" y1="0" x2="480" y2="2160" stroke="#12161B" stroke-width="1"/>
<line x1="560" y1="0" x2="560" y2="2160" stroke="#12161B" stroke-width="1"/>
<line x1="640" y1="0" x2="640" y2="2160" stroke="#12161B" stroke-width="1"/>
<line x1="720" y1="0" x2="720" y2="2160" stroke="#12161B" stroke-width="1"/>
<line x1="800" y1="0" x2="800" y2="2160" stroke="#12161B" stroke-width="1"/>
<line x1="880" y1="0" x2="880" y2="2160" stroke="#12161B" stroke-width="1"/>
<line x1="960" y1="0" x2="960" y2="2160" stroke="#12161B" stroke-width="1"/>
<line x1="1040" y1="0" x2="1040" y2="2160" stroke="#12161B" stroke-width="1"/>
<line x1="1120" y1="0" x2="1120" y2="2160" stroke="#12161B" stroke-width="1"/>
<line x1="1200" y1="0" x2="1200" y2="2160" stroke="#12161B" stroke-width="1"/>
<line x1="1280" y1="0" x2="1280" y2="2160" stroke="#12161B" stroke-width="1"/>
<line x1="1360" y1="0" x2="1360" y2="2160" stroke="#12161B" stroke-width="1"/>
<line x1="1440" y1="0" x2="1440" y2="2160" stroke="#12161B" stroke-width="1"/>
<line x1="1520" y1="0" x2="1520" y2="2160" stroke="#12161B" stroke-width="1"/>
<line x1="1600" y1="0" x2="1600" y2="2160" stroke="#12161B" stroke-width="1"/>
<line x1="1680" y1="0" x2="1680" y2="2160" stroke="#12161B" stroke-width="1"/>
<line x1="1760" y1="0" x2="1760" y2="2160" stroke="#12161B" stroke-width="1"/>
<line x1="1840" y1="0" x2="1840" y2="2160" stroke="#12161B" stroke-width="1"/>
<line x1="1920" y1="0" x2="1920" y2="2160" stroke="#12161B" stroke-width="1"/>
<line x1="2000" y1="0" x2="2000" y2="2160" stroke="#12161B" stroke-width="1"/>
<line x1="2080" y1="0" x2="2080" y2="2160" stroke="#12161B" stroke-width="1"/>
<line x1="2160" y1="0" x2="2160" y2="2160" stroke="#12161B" stroke-width="1"/>
<line x1="2240" y1="0" x2="2240" y2="2160" stroke="#12161B" stroke-width="1"/>
<line x1="2320" y1="0" x2="2320" y2="2160" stroke="#12161B" stroke-width="1"/>
<line x1="2400" y1="0" x2="2400" y2="2160" stroke="#12161B" stroke-width="1"/>
<line x1="2480" y1="0" x2="2480" y2="2160" stroke="#12161B" stroke-width="1"/>
<line x1="2560" y1="0" x2="2560" y2="2160" stroke="#12161B" stroke-width="1"/>
<line x1="2640" y1="0" x2="2640" y2="2160" stroke="#12161B" stroke-width="1"/>
<line x1="2720" y1="0" x2="2720" y2="2160" stroke="#12161B" stroke-width="1"/>
<line x1="2800" y1="0" x2="2800" y2="2160" stroke="#12161B" stroke-width="1"/>
<line x1="2880" y1="0" x2="2880" y2="2160" stroke="#12161B" stroke-width="1"/>
<line x1="2960" y1="0" x2="2960" y2="2160" stroke="#12161B" stroke-width="1"/>
<line x1="3040" y1="0" x2="3040" y2="2160" stroke="#12161B" stroke-width="1"/>
<line x1="3120" y1="0" x2="3120" y2="2160" stroke="#12161B" stroke-width="1"/>
<line x1="3200" y1="0" x2="3200" y2="2160" stroke="#12161B" stroke-width="1"/>
<line x1="3280" y1="0" x2="3280" y2="2160" stroke="#12161B" stroke-width="1"/>
<line x1="3360" y1="0" x2="3360" y2="2160" stroke="#12161B" stroke-width="1"/>
<line x1="3440" y1="0" x2="3440" y2="2160" stroke="#12161B" stroke-width="1"/>
<line x1="3520" y1="0" x2="3520" y2="2160" stroke="#12161B" stroke-width="1"/>
<line x1="3600" y1="0" x2="3600" y2="2160" stroke="#12161B" stroke-width="1"/>
<line x1="3680" y1="0" x2="3680" y2="2160" stroke="#12161B" stroke-width="1"/>
<line x1="3760" y1="0" x2="3760" y2="2160" stroke="#12161B" stroke-width="1"/>
<line x1="0" y1="0" x2="3840" y2="0" stroke="#12161B" stroke-width="1"/>
<line x1="0" y1="80" x2="3840" y2="80" stroke="#12161B" stroke-width="1"/>
<line x1="0" y1="160" x2="3840" y2="160" stroke="#12161B" stroke-width="1"/>
<line x1="0" y1="240" x2="3840" y2="240" stroke="#12161B" stroke-width="1"/>
<line x1="0" y1="320" x2="3840" y2="320" stroke="#12161B" stroke-width="1"/>
<line x1="0" y1="400" x2="3840" y2="400" stroke="#12161B" stroke-width="1"/>
<line x1="0" y1="480" x2="3840" y2="480" stroke="#12161B" stroke-width="1"/>
<line x1="0" y1="560" x2="3840" y2="560" stroke="#12161B" stroke-width="1"/>
<line x1="0" y1="640" x2="3840" y2="640" stroke="#12161B" stroke-width="1"/>
<line x1="0" y1="720" x2="3840" y2="720" stroke="#12161B" stroke-width="1"/>
<line x1="0" y1="800" x2="3840" y2="800" stroke="#12161B" stroke-width="1"/>
<line x1="0" y1="880" x2="3840" y2="880" stroke="#12161B" stroke-width="1"/>
<line x1="0" y1="960" x2="3840" y2="960" stroke="#12161B" stroke-width="1"/>
<line x1="0" y1="1040" x2="3840" y2="1040" stroke="#12161B" stroke-width="1"/>
<line x1="0" y1="1120" x2="3840" y2="1120" stroke="#12161B" stroke-width="1"/>
<line x1="0" y1="1200" x2="3840" y2="1200" stroke="#12161B" stroke-width="1"/>
<line x1="0" y1="1280" x2="3840" y2="1280" stroke="#12161B" stroke-width="1"/>
<line x1="0" y1="1360" x2="3840" y2="1360" stroke="#12161B" stroke-width="1"/>
<line x1="0" y1="1440" x2="3840" y2="1440" stroke="#12161B" stroke-width="1"/>
<line x1="0" y1="1520" x2="3840" y2="1520" stroke="#12161B" stroke-width="1"/>
<line x1="0" y1="1600" x2="3840" y2="1600" stroke="#12161B" stroke-width="1"/>
<line x1="0" y1="1680" x2="3840" y2="1680" stroke="#12161B" stroke-width="1"/>
<line x1="0" y1="1760" x2="3840" y2="1760" stroke="#12161B" stroke-width="1"/>
<line x1="0" y1="1840" x2="3840" y2="1840" stroke="#12161B" stroke-width="1"/>
<line x1="0" y1="1920" x2="3840" y2="1920" stroke="#12161B" stroke-width="1"/>
<line x1="0" y1="2000" x2="3840" y2="2000" stroke="#12161B" stroke-width="1"/>
<line x1="0" y1="2080" x2="3840" y2="2080" stroke="#12161B" stroke-width="1"/>
<rect x="80" y="64" width="3680" height="180" rx="34" fill="#111418" stroke="#2A2F37" filter="url(#shadow)"/>
<rect x="116" y="98" width="102" height="102" rx="24" fill="#0C0F13" stroke="#FFB000" stroke-width="3"/>
<text x="142" y="164" class="h1" fill="url(#kvgrad)">KV</text>
<text x="250" y="135" class="title">Implementation Tasks — Kinein Vectis / Kernwerk Studio</text>
<text x="253" y="184" class="subtitle">Tarefas pragmáticas para transformar a base Rust + Qt6 em IDE usável, performática e profissional</text>
<rect x="2350" y="112" width="190" height="48" rx="24" fill="#0E1217" stroke="#D45F5F" stroke-width="2"/>
<circle cx="2376" cy="136" r="7" fill="#D45F5F"/>
<text x="2394" y="144" class="pill">No rename now</text>
<rect x="2556" y="112" width="142" height="48" rx="24" fill="#0E1217" stroke="#5C8DFF" stroke-width="2"/>
<circle cx="2582" cy="136" r="7" fill="#5C8DFF"/>
<text x="2600" y="144" class="pill">Rust Core</text>
<rect x="2714" y="112" width="118" height="48" rx="24" fill="#0E1217" stroke="#8A5CFF" stroke-width="2"/>
<circle cx="2740" cy="136" r="7" fill="#8A5CFF"/>
<text x="2758" y="144" class="pill">Qt6/QML</text>
<rect x="2848" y="112" width="178" height="48" rx="24" fill="#0E1217" stroke="#FFB000" stroke-width="2"/>
<circle cx="2874" cy="136" r="7" fill="#FFB000"/>
<text x="2892" y="144" class="pill">Task Manager</text>
<rect x="3042" y="112" width="154" height="48" rx="24" fill="#0E1217" stroke="#7CCF6A" stroke-width="2"/>
<circle cx="3068" cy="136" r="7" fill="#7CCF6A"/>
<text x="3086" y="144" class="pill">Dogfooding</text>
<rect x="80" y="300" width="3680" height="1660" rx="28" fill="#111418" stroke="#2A2F37" filter="url(#shadow)"/>
<text x="122" y="362" class="h1">A próxima fase não é imaginar mais a IDE — é solidificar o Kernwerk atual</text>
<rect x="122" y="410" width="1780" height="500" rx="26" fill="#171B21" stroke="#2A2F37"/>
<text x="156" y="468" class="h1">Base atual</text>
<circle cx="176" cy="522" r="7" fill="#7CCF6A"/>
<text x="200" y="530" class="body">Qt/QML UI ↔ JSON-RPC/stdin-stdout ↔ Rust Core</text>
<circle cx="176" cy="580" r="7" fill="#7CCF6A"/>
<text x="200" y="588" class="body">workspace/fs/build/test/quality/run/terminal/LSP já existem</text>
<circle cx="176" cy="638" r="7" fill="#7CCF6A"/>
<text x="200" y="646" class="body">Protocolo atual registrado: 0.19.0</text>
<circle cx="176" cy="696" r="7" fill="#7CCF6A"/>
<text x="200" y="704" class="body">Gate único scripts/verificar.sh</text>
<circle cx="176" cy="754" r="7" fill="#7CCF6A"/>
<text x="200" y="762" class="body">lib.rs já modularizado; lsp.rs, CoreClient e Main.qml são próximos alvos</text>
<rect x="1950" y="410" width="1848" height="500" rx="26" fill="#171B21" stroke="#2A2F37"/>
<text x="1984" y="468" class="h1">Não fazer agora</text>
<circle cx="2004" cy="522" r="7" fill="#D45F5F"/>
<text x="2028" y="530" class="body">renomear todo o projeto para Kinein</text>
<circle cx="2004" cy="578" r="7" fill="#D45F5F"/>
<text x="2028" y="586" class="body">plugin system / marketplace</text>
<circle cx="2004" cy="634" r="7" fill="#D45F5F"/>
<text x="2028" y="642" class="body">IA provider interno / chat embutido</text>
<circle cx="2004" cy="690" r="7" fill="#D45F5F"/>
<text x="2028" y="698" class="body">debug visual completo / embedded completo</text>
<circle cx="2004" cy="746" r="7" fill="#D45F5F"/>
<text x="2028" y="754" class="body">CMake parser universal / indexador próprio</text>
<circle cx="2004" cy="802" r="7" fill="#D45F5F"/>
<text x="2028" y="810" class="body">loja de funções avançada antes da V1</text>
<rect x="122" y="960" width="3596" height="610" rx="26" fill="#171B21" stroke="#2A2F37"/>
<text x="156" y="1018" class="h1">Ordem recomendada</text>
<rect x="156" y="1080" width="570" height="105" rx="22" fill="#0D1014" stroke="#D45F5F" stroke-width="2"/>
<text x="180" y="1119" class="h2" fill="#D45F5F">M0</text>
<text x="256" y="1119" class="h2">Consolidar docs</text>
<text x="180" y="1155" class="small">política IA, V1/Pós-V1, precedência</text>
<rect x="754" y="1080" width="570" height="105" rx="22" fill="#0D1014" stroke="#FFB000" stroke-width="2"/>
<text x="778" y="1119" class="h2" fill="#FFB000">M1</text>
<text x="854" y="1119" class="h2">Reorg engenharia</text>
<text x="778" y="1155" class="small">lsp.rs, CoreClient, Main.qml</text>
<rect x="1352" y="1080" width="570" height="105" rx="22" fill="#0D1014" stroke="#8A5CFF" stroke-width="2"/>
<text x="1376" y="1119" class="h2" fill="#8A5CFF">M2</text>
<text x="1452" y="1119" class="h2">Task Manager</text>
<text x="1376" y="1155" class="small">Process Runner, task.*, popup</text>
<rect x="1950" y="1080" width="570" height="105" rx="22" fill="#0D1014" stroke="#5C8DFF" stroke-width="2"/>
<text x="1974" y="1119" class="h2" fill="#5C8DFF">M4</text>
<text x="2050" y="1119" class="h2">UI shell</text>
<text x="1974" y="1155" class="small">tokens, project tree, status/topbar</text>
<rect x="156" y="1240" width="570" height="105" rx="22" fill="#0D1014" stroke="#7CCF6A" stroke-width="2"/>
<text x="180" y="1279" class="h2" fill="#7CCF6A">M6</text>
<text x="256" y="1279" class="h2">Diagnostics</text>
<text x="180" y="1315" class="small">modelo unificado, Problems 2.0</text>
<rect x="754" y="1240" width="570" height="105" rx="22" fill="#0D1014" stroke="#FFB000" stroke-width="2"/>
<text x="778" y="1279" class="h2" fill="#FFB000">M8</text>
<text x="854" y="1279" class="h2">Dogfooding</text>
<text x="778" y="1315" class="small">mixed build, run configs, C++ quality</text>
<rect x="1352" y="1240" width="570" height="105" rx="22" fill="#0D1014" stroke="#7CCF6A" stroke-width="2"/>
<text x="1376" y="1279" class="h2" fill="#7CCF6A">M9</text>
<text x="1452" y="1279" class="h2">Git MVP</text>
<text x="1376" y="1315" class="small">status, stage, commit básico</text>
<rect x="1950" y="1240" width="570" height="105" rx="22" fill="#0D1014" stroke="#5C8DFF" stroke-width="2"/>
<text x="1974" y="1279" class="h2" fill="#5C8DFF">M12</text>
<text x="2050" y="1279" class="h2">Code Actions</text>
<text x="1974" y="1315" class="small">LSP quick fixes + preview</text>
<rect x="156" y="1400" width="570" height="105" rx="22" fill="#0D1014" stroke="#8A5CFF" stroke-width="2"/>
<text x="180" y="1439" class="h2" fill="#8A5CFF">M10</text>
<text x="256" y="1439" class="h2">AI Terminal</text>
<text x="180" y="1475" class="small">terminal externo dedicado</text>
<rect x="754" y="1400" width="570" height="105" rx="22" fill="#0D1014" stroke="#FFB000" stroke-width="2"/>
<text x="778" y="1439" class="h2" fill="#FFB000">M7</text>
<text x="854" y="1439" class="h2">Toolchain Setup</text>
<text x="778" y="1475" class="small">first-run + profiles</text>
<rect x="1352" y="1400" width="570" height="105" rx="22" fill="#0D1014" stroke="#7CCF6A" stroke-width="2"/>
<text x="1376" y="1439" class="h2" fill="#7CCF6A">M11</text>
<text x="1452" y="1439" class="h2">Config Actions</text>
<text x="1376" y="1475" class="small">CMake/Cargo scoped + preview</text>
<rect x="1950" y="1400" width="570" height="105" rx="22" fill="#0D1014" stroke="#5C8DFF" stroke-width="2"/>
<text x="1974" y="1439" class="h2" fill="#5C8DFF">M5</text>
<text x="2050" y="1439" class="h2">Editor hardening</text>
<text x="1974" y="1475" class="small">EditorDocument, large file, external changes</text>
<rect x="122" y="1620" width="3596" height="280" rx="26" fill="#171B21" stroke="#2A2F37"/>
<text x="156" y="1678" class="h1">Pronto para V1 quando...</text>
<rect x="156" y="1711" width="306" height="52" rx="16" fill="#0D1014" stroke="#7CCF6A" stroke-width="2"/>
<text x="178" y="1745" class="small" fill="#E7E2D8">editor confiável</text>
<rect x="480" y="1711" width="449" height="52" rx="16" fill="#0D1014" stroke="#7CCF6A" stroke-width="2"/>
<text x="502" y="1745" class="small" fill="#E7E2D8">build/test/quality Rust+CMake</text>
<rect x="947" y="1711" width="328" height="52" rx="16" fill="#0D1014" stroke="#7CCF6A" stroke-width="2"/>
<text x="969" y="1745" class="small" fill="#E7E2D8">run configurations</text>
<rect x="1293" y="1711" width="273" height="52" rx="16" fill="#0D1014" stroke="#7CCF6A" stroke-width="2"/>
<text x="1315" y="1745" class="small" fill="#E7E2D8">terminal real</text>
<rect x="1584" y="1711" width="218" height="52" rx="16" fill="#0D1014" stroke="#7CCF6A" stroke-width="2"/>
<text x="1606" y="1745" class="small" fill="#E7E2D8">LSP útil</text>
<rect x="1820" y="1711" width="328" height="52" rx="16" fill="#0D1014" stroke="#7CCF6A" stroke-width="2"/>
<text x="1842" y="1745" class="small" fill="#E7E2D8">Problems unificado</text>
<rect x="2166" y="1711" width="240" height="52" rx="16" fill="#0D1014" stroke="#7CCF6A" stroke-width="2"/>
<text x="2188" y="1745" class="small" fill="#E7E2D8">Git básico</text>
<rect x="2424" y="1711" width="295" height="52" rx="16" fill="#0D1014" stroke="#7CCF6A" stroke-width="2"/>
<text x="2446" y="1745" class="small" fill="#E7E2D8">toolchain setup</text>
<rect x="2737" y="1711" width="339" height="52" rx="16" fill="#0D1014" stroke="#7CCF6A" stroke-width="2"/>
<text x="2759" y="1745" class="small" fill="#E7E2D8">AI Terminal externo</text>
<rect x="3094" y="1711" width="339" height="52" rx="16" fill="#0D1014" stroke="#7CCF6A" stroke-width="2"/>
<text x="3116" y="1745" class="small" fill="#E7E2D8">gate completo verde</text>
<rect x="156" y="1781" width="416" height="52" rx="16" fill="#0D1014" stroke="#7CCF6A" stroke-width="2"/>
<text x="178" y="1815" class="small" fill="#E7E2D8">dogfooding no próprio repo</text>
<rect x="122" y="1922" width="3596" height="44" rx="16" fill="#0D1014" stroke="#2A2F37"/>
<text x="152" y="1951" class="small">Frase-guia: solidificar o Kernwerk atual para virar Kinein Vectis com segurança, sem duplicar sistemas e sem inflar escopo.</text>
</svg>